<svg width="113" height="50" viewBox="0 0 113 50" fill="none" xmlns="http://www.w3.org/2000/svg">
<g clip-path="url(#clip0_1_394)">
<path d="M11.8636 0.560059H112.153C112.153 0.560059 108.335 24.4845 89.7531 34.8365L102.989 49.3292L66.2081 49.4442L60.7354 42.888L58.4446 49.5592L17.1301 49.4511C17.1301 49.4511 -1.99864 50.3 0.839486 28.9934C1.74056 22.0944 11.8636 0.560059 11.8636 0.560059Z" fill="white"/>
<path d="M17.8306 7.04468L31.3366 7.00098C28.5621 14.0104 23.6113 26.1728 23.2905 27.6727C22.6644 30.6149 22.8451 32.3978 24.0822 33.686C25.4185 35.0663 27.5286 35.4366 29.201 35.501C32.482 35.5976 37.5728 35.7564 40.8819 35.5263C40.8819 35.5263 41.0779 35.6943 41.9 33.916L48.8999 15.6276H77.9175C77.9175 15.6276 76.8994 20.6885 71.0449 21.1486C67.4748 21.4261 63.8887 21.4983 60.3084 21.3649L52.4635 42.5427L19.6277 42.7727C17.3979 42.6347 13.8624 42.0688 11.4519 39.6786C8.90645 37.1481 9.09226 32.9522 9.36971 30.937C9.45625 30.3067 10.8842 24.8615 11.1006 24.2657L17.8306 7.04468Z" fill="#D9211C"/>
<path d="M34.3917 7.1167L26.5544 27.931C26.5544 27.931 25.0704 32.1477 27.71 32.6216C30.8612 33.1875 34.2211 33.1415 36.5426 33.0817C37.94 33.0495 38.8334 32.9874 38.8334 32.9874L39.8872 30.2268L45.9249 14.3539C46.7242 12.3019 46.4696 12.762 48.6027 12.6469H83.2635C83.152 13.3663 82.961 14.0738 82.6933 14.7587C80.5526 20.4845 74.4538 24.2273 67.767 24.0594L62.2639 24.0341L59.8457 31.9706L69.5183 42.3225H87.0816L76.5181 30.4753H77.2818C77.2818 30.4753 93.9541 30.3603 101.59 7.1259L34.3917 7.1167Z" fill="#1D1D1B"/>
</g>
<defs>
<clipPath id="clip0_1_394">
<rect width="111.614" height="48.9992" fill="white" transform="translate(0.542969 0.560059)"/>
</clipPath>
</defs>
</svg>
