<svg width="23" height="23" viewBox="0 0 23 23" fill="none" xmlns="http://www.w3.org/2000/svg">
<path d="M0 1H4.3837L5.87181 15.1881H21.8207V4.81806H8.65286" stroke="#8E8E8E" stroke-width="2" stroke-miterlimit="10"/>
<path d="M8.70008 22.4C9.89759 22.4 10.8684 21.4293 10.8684 20.2318C10.8684 19.0342 9.89759 18.0635 8.70008 18.0635C7.50257 18.0635 6.5318 19.0342 6.5318 20.2318C6.5318 21.4293 7.50257 22.4 8.70008 22.4Z" fill="#8E8E8E"/>
<path d="M19.3526 22.4C20.5501 22.4 21.5209 21.4293 21.5209 20.2318C21.5209 19.0342 20.5501 18.0635 19.3526 18.0635C18.1551 18.0635 17.1843 19.0342 17.1843 20.2318C17.1843 21.4293 18.1551 22.4 19.3526 22.4Z" fill="#8E8E8E"/>
</svg>
