<svg width="20" height="20" viewBox="0 0 20 20" fill="none" xmlns="http://www.w3.org/2000/svg">
<path fill-rule="evenodd" clip-rule="evenodd" d="M16.4 6.4H18C18.88 6.4 19.6 7.12 19.6 8V18.4C19.6 18.84 19.241 19.2 18.8 19.2H1.20002C0.760024 19.2 0.400024 18.84 0.400024 18.4V7.2C0.400024 6.76 0.735024 6.266 1.14302 6.103L16.401 0L16.4 6.4ZM14.8 6.4V2.363L4.70802 6.4H14.8ZM14.8 14.4H18V11.2H14.8C13.918 11.2 13.2 11.917 13.2 12.8C13.2 13.682 13.918 14.4 14.8 14.4ZM14.8 9.6H18V8H2.00002V17.6H18V16H14.8C13.9513 16 13.1374 15.6629 12.5373 15.0627C11.9372 14.4626 11.6 13.6487 11.6 12.8C11.6 11.9513 11.9372 11.1374 12.5373 10.5373C13.1374 9.93714 13.9513 9.6 14.8 9.6ZM14.801 13.6C14.9093 13.6054 15.0176 13.5888 15.1192 13.5511C15.2209 13.5134 15.3138 13.4554 15.3924 13.3807C15.4709 13.3059 15.5335 13.216 15.5762 13.1164C15.619 13.0167 15.641 12.9094 15.641 12.801C15.641 12.6926 15.619 12.5853 15.5762 12.4856C15.5335 12.386 15.4709 12.2961 15.3924 12.2213C15.3138 12.1466 15.2209 12.0886 15.1192 12.0509C15.0176 12.0132 14.9093 11.9966 14.801 12.002C14.596 12.0123 14.4028 12.1009 14.2614 12.2496C14.1199 12.3984 14.041 12.5957 14.041 12.801C14.041 13.0063 14.1199 13.2036 14.2614 13.3524C14.4028 13.5011 14.596 13.5897 14.801 13.6Z" fill="black"/>
</svg>
