<svg width="53" height="53" viewBox="0 0 53 53" fill="none" xmlns="http://www.w3.org/2000/svg">
<g clip-path="url(#clip0_2_70)">
<path d="M48.1227 6.65265H4.87735C2.18801 6.65265 0 8.84056 0 11.5333C0 14.2226 2.18801 16.4107 4.87735 16.4107H48.1227C50.812 16.4107 53 14.2226 53 11.5333C53 8.84056 50.812 6.65265 48.1227 6.65265Z" fill="white"/>
<path d="M48.1227 21.621H4.87735C2.18801 21.621 0 23.8089 0 26.5017C0 29.191 2.18801 31.379 4.87735 31.379H48.1227C50.812 31.379 53 29.191 53 26.5017C53 23.8089 50.812 21.621 48.1227 21.621Z" fill="white"/>
<path d="M48.1227 36.5894H4.87735C2.18801 36.5894 0 38.7774 0 41.47C0 44.1593 2.18801 46.3474 4.87735 46.3474H48.1227C50.812 46.3474 53 44.1593 53 41.47C53 38.7774 50.812 36.5894 48.1227 36.5894Z" fill="white"/>
</g>
<defs>
<clipPath id="clip0_2_70">
<rect width="53" height="53" fill="white"/>
</clipPath>
</defs>
</svg>
