<svg width="29" height="29" viewBox="0 0 29 29" fill="none" xmlns="http://www.w3.org/2000/svg">
<g clip-path="url(#clip0_1_53)">
<path d="M1.81252 1.9732C-0.4664 4.34032 1.69799e-05 6.85487 1.69799e-05 14.494C1.69799e-05 20.8377 -1.10682 27.1972 4.68593 28.6943C6.49481 29.1595 22.5221 29.1595 24.3286 28.6919C26.7404 28.0696 28.7028 26.1133 28.971 22.7022C29.0085 22.2261 29.0085 6.77028 28.9698 6.28453C28.6846 2.65107 26.448 0.557027 23.5009 0.132902C22.8254 0.0350266 22.6901 0.00602657 19.2246 -1.50986e-05C6.93223 0.00602657 4.23764 -0.541349 1.81252 1.9732Z" fill="url(#paint0_linear_1_53)"/>
<path d="M14.4976 3.79296C10.1101 3.79296 5.94379 3.40267 4.35242 7.48683C3.69508 9.17366 3.79054 11.3644 3.79054 14.5012C3.79054 17.2538 3.70233 19.8408 4.35242 21.5144C5.94017 25.6009 10.1403 25.2094 14.4952 25.2094C18.6965 25.2094 23.0284 25.6469 24.6391 21.5144C25.2977 19.8106 25.201 17.6525 25.201 14.5012C25.201 10.318 25.4318 7.61733 23.403 5.58975C21.3488 3.53558 18.5709 3.79296 14.4927 3.79296H14.4976ZM13.5382 5.72266C22.6901 5.70816 23.8549 4.69075 23.2121 18.8246C22.9837 23.8235 19.1775 23.2749 14.4988 23.2749C5.96796 23.2749 5.72267 23.0308 5.72267 14.4964C5.72267 5.86283 6.39933 5.7275 13.5382 5.72025V5.72266ZM20.213 7.50012C19.5037 7.50012 18.9285 8.07529 18.9285 8.78458C18.9285 9.49387 19.5037 10.069 20.213 10.069C20.9223 10.069 21.4975 9.49387 21.4975 8.78458C21.4975 8.07529 20.9223 7.50012 20.213 7.50012ZM14.4976 9.00208C11.461 9.00208 8.99967 11.4647 8.99967 14.5012C8.99967 17.5377 11.461 19.9991 14.4976 19.9991C17.5341 19.9991 19.9943 17.5377 19.9943 14.5012C19.9943 11.4647 17.5341 9.00208 14.4976 9.00208ZM14.4976 10.9318C19.2161 10.9318 19.2222 18.0706 14.4976 18.0706C9.78025 18.0706 9.773 10.9318 14.4976 10.9318Z" fill="white"/>
</g>
<defs>
<linearGradient id="paint0_linear_1_53" x1="1.86812" y1="27.1477" x2="28.8206" y2="3.82074" gradientUnits="userSpaceOnUse">
<stop stop-color="#FFDD55"/>
<stop offset="0.5" stop-color="#FF543E"/>
<stop offset="1" stop-color="#C837AB"/>
</linearGradient>
<clipPath id="clip0_1_53">
<rect width="29" height="29" fill="white"/>
</clipPath>
</defs>
</svg>
