<svg width="14" height="14" viewBox="0 0 14 14" fill="none" xmlns="http://www.w3.org/2000/svg">
<path d="M10.6436 9.26127C10.1862 8.80971 9.61519 8.80971 9.16072 9.26127C8.81404 9.60504 8.46736 9.9488 8.12651 10.2984C8.03329 10.3945 7.95463 10.4149 7.84101 10.3508C7.61669 10.2285 7.3778 10.1294 7.16222 9.99541C6.15714 9.36323 5.31521 8.55043 4.56941 7.63567C4.19942 7.1812 3.87023 6.69468 3.64008 6.14699C3.59347 6.03628 3.6022 5.96345 3.69252 5.87314C4.0392 5.53812 4.37713 5.19435 4.71799 4.85058C5.19285 4.37281 5.19285 3.81346 4.71507 3.33277C4.44414 3.05892 4.17321 2.7909 3.90227 2.51706C3.6226 2.23738 3.34584 1.9548 3.06325 1.67804C2.60587 1.23231 2.03487 1.23231 1.5804 1.68095C1.23081 2.02471 0.895779 2.37722 0.540361 2.71516C0.211161 3.02688 0.045105 3.40852 0.0101458 3.85425C-0.0452063 4.57965 0.132503 5.26427 0.383044 5.93141C0.895779 7.31229 1.67654 8.53878 2.62335 9.6633C3.90227 11.184 5.42882 12.3872 7.21466 13.2554C8.01872 13.6457 8.85191 13.9458 9.75794 13.9953C10.3814 14.0303 10.9232 13.873 11.3573 13.3865C11.6545 13.0543 11.9895 12.7514 12.3041 12.4338C12.7703 11.9619 12.7732 11.3909 12.31 10.9247C11.7564 10.3683 11.2 9.81479 10.6436 9.26127Z" fill="#5F24A8"/>
<path d="M10.0869 6.9394L11.1619 6.75587C10.993 5.76827 10.5268 4.8739 9.81892 4.16306C9.07021 3.41435 8.1234 2.9424 7.08044 2.79674L6.92896 3.87756C7.73593 3.99118 8.47007 4.35534 9.04981 4.93508C9.59751 5.48277 9.95584 6.17613 10.0869 6.9394Z" fill="#0039A8"/>
<path d="M11.768 2.26652C10.5269 1.02547 8.95666 0.241801 7.22327 0L7.07178 1.08082C8.5692 1.29058 9.92678 1.96937 10.9989 3.03854C12.0156 4.05527 12.6827 5.34002 12.9245 6.75295L13.9995 6.56942C13.7169 4.93216 12.9449 3.4464 11.768 2.26652Z" fill="#020BDE"/>
</svg>
