<svg width="30" height="30" viewBox="0 0 30 30" fill="none" xmlns="http://www.w3.org/2000/svg">
<g clip-path="url(#clip0_1_61)">
<path d="M14.9998 29.9998C23.284 29.9998 29.9996 23.2842 29.9996 15C29.9996 6.71583 23.284 0.000183105 14.9998 0.000183105C6.71565 0.000183105 0 6.71583 0 15C0 23.2842 6.71565 29.9998 14.9998 29.9998Z" fill="#41B4E6"/>
<path d="M30.0001 15.0002C30.0001 14.6347 29.9863 14.2725 29.9606 13.9135L23.7439 7.6969L6.25623 14.5757L12.9471 21.2667L13.0349 21.5826L13.1485 21.4681L13.149 21.4685L13.0349 21.5826L20.4363 28.984C26.0331 26.8067 30.0001 21.367 30.0001 15.0002Z" fill="#0091C8"/>
<path d="M13.5432 17.1856L20.322 22.3036L23.7438 7.6969L6.2561 14.5758L11.5774 16.3383L21.2889 9.82409L13.5432 17.1856Z" fill="white"/>
<path d="M11.5774 16.3383L13.0348 21.5827L13.5432 17.1856L21.2889 9.82407L11.5774 16.3383Z" fill="#D2D2D7"/>
<path d="M15.7464 18.8489L13.0349 21.5827L13.5433 17.1855L15.7464 18.8489Z" fill="#B9B9BE"/>
</g>
<defs>
<clipPath id="clip0_1_61">
<rect width="30" height="30" fill="white"/>
</clipPath>
</defs>
</svg>
