<svg width="30" height="30" viewBox="0 0 30 30" fill="none" xmlns="http://www.w3.org/2000/svg">
<g clip-path="url(#clip0_1_67)">
<path d="M25.65 4.31125C22.8 1.55625 19.05 0 15.0562 0C3.59375 0 -3.60375 12.4187 2.12 22.2975L0 30L7.91875 27.935C11.3687 29.7987 14.195 29.6338 15.0637 29.7437C28.355 29.7437 34.9712 13.6637 25.6312 4.36L25.65 4.31125Z" fill="#ECEFF1"/>
<path d="M15.0837 27.1887L15.0762 27.1875H15.0562C11.0787 27.1875 8.53748 25.3037 8.28748 25.195L3.59998 26.4137L4.85623 21.8575L4.55748 21.3887C3.31998 19.4187 2.66248 17.15 2.66248 14.8137C2.66248 3.82249 16.0937 -1.67376 23.8662 6.09499C31.62 13.7825 26.1762 27.1887 15.0837 27.1887Z" fill="#4CAF50"/>
<path d="M21.8837 17.8837L21.8725 17.9775C21.4962 17.79 19.6637 16.8937 19.3225 16.77C18.5562 16.4862 18.7725 16.725 17.3012 18.41C17.0825 18.6537 16.865 18.6725 16.4937 18.5037C16.1187 18.3162 14.915 17.9225 13.49 16.6475C12.38 15.6537 11.635 14.435 11.415 14.06C11.0487 13.4275 11.815 13.3375 12.5125 12.0175C12.6375 11.755 12.5737 11.5487 12.4812 11.3625C12.3875 11.175 11.6412 9.3375 11.3287 8.605C11.0287 7.875 10.72 7.9675 10.4887 7.9675C9.76874 7.905 9.24249 7.915 8.77874 8.3975C6.76124 10.615 7.26999 12.9025 8.99624 15.335C12.3887 19.775 14.1962 20.5925 17.5012 21.7275C18.3937 22.0112 19.2075 21.9712 19.8512 21.8787C20.5687 21.765 22.06 20.9775 22.3712 20.0962C22.69 19.215 22.69 18.4837 22.5962 18.315C22.5037 18.1462 22.2587 18.0525 21.8837 17.8837Z" fill="#FAFAFA"/>
</g>
<defs>
<clipPath id="clip0_1_67">
<rect width="30" height="30" fill="white"/>
</clipPath>
</defs>
</svg>
