<svg width="90" height="90" viewBox="0 0 90 90" fill="none" xmlns="http://www.w3.org/2000/svg">
<g clip-path="url(#clip0_1_14)">
<path d="M90 45C90 52.9646 87.9293 60.4477 84.2994 66.9375C82.7684 69.6744 75.2688 54.5173 73.2192 56.864C69.686 60.9122 65.4391 64.3206 60.6755 66.8958C54.3192 70.3324 47.0419 72.2835 39.3075 72.2835C31.5731 72.2835 29.9883 88.0488 23.632 84.6123C18.8684 82.0371 14.6215 78.6287 11.0883 74.5805C9.03867 72.2338 7.23164 69.6744 5.70059 66.9375C2.0707 60.4477 0 52.9646 0 45C0 37.0354 2.0707 29.5523 5.70059 23.0625C10.7719 13.9957 18.8895 6.86602 28.6682 3.05684C33.7307 1.08281 39.2396 0 45 0C50.7604 0 56.2693 1.08281 61.3318 3.05684C71.1105 6.86602 79.2281 13.9957 84.2994 23.0625C87.9293 29.5523 90 37.0354 90 45Z" fill="#DC4356"/>
<path d="M84.2994 12.2344V66.9375C76.602 80.6976 61.8873 90 45 90H14.8781C9.80861 90 5.70061 85.892 5.70061 80.8224V12.2344C5.70061 7.16659 9.80861 3.05682 14.8781 3.05682H75.1219C80.1914 3.05682 84.2994 7.16659 84.2994 12.2344Z" fill="#D2D9F8"/>
<path d="M19.1809 89.9996H14.8766C9.80914 89.9996 5.70061 85.8911 5.70061 80.8236V12.2355C5.70061 7.16637 9.80914 3.05783 14.8766 3.05783H19.1809C14.1117 3.05783 10.0032 7.16637 10.0032 12.2355V80.8236C10.003 85.8911 14.1116 89.9996 19.1809 89.9996Z" fill="#C3CCEC"/>
<path d="M78.9115 12.2352V25.9166H11.0884V12.2352C11.0884 10.145 12.7872 8.44452 14.8774 8.44452H75.1227C77.2127 8.44452 78.9115 10.145 78.9115 12.2352Z" fill="#E8ECFD"/>
<path d="M78.9118 31.6318V74.5805C75.3786 78.6287 71.1317 82.0371 66.3681 84.6123H14.8782C12.7864 84.6123 11.0884 82.9125 11.0884 80.8242V31.6318H78.9118Z" fill="#E8ECFD"/>
<path d="M45 82.8573C58.4817 82.8573 69.4108 71.9282 69.4108 58.4465C69.4108 44.9649 58.4817 34.0358 45 34.0358C31.5184 34.0358 20.5893 44.9649 20.5893 58.4465C20.5893 71.9282 31.5184 82.8573 45 82.8573Z" fill="#D2D9F8"/>
<path d="M64.0289 58.4473C64.0289 68.9556 55.5102 77.4761 45.0001 77.4761C39.4568 77.4761 34.4665 75.1059 30.9901 71.3224C32.7175 69.4422 34.0733 67.2156 34.9371 64.7555C35.016 64.5293 35.0916 64.2994 35.1616 64.0696C35.7111 62.2937 36.0073 60.4063 36.0073 58.4473C36.0073 56.2351 35.6302 54.1125 34.9371 52.1372C34.0733 49.6772 32.7177 47.4506 30.9901 45.5704C34.4665 41.7869 39.4568 39.4167 45.0001 39.4167C55.5102 39.4165 64.0289 47.9371 64.0289 58.4473Z" fill="#50405A"/>
<path d="M56.8767 58.4472C56.8767 65.0051 51.5597 70.3221 45 70.3221C40.7586 70.3221 37.038 68.099 34.9369 64.7555C35.63 62.782 36.0071 60.6595 36.0071 58.4472C36.0071 56.235 35.63 54.1125 34.9369 52.1372C37.0379 48.7937 40.7586 46.5706 45 46.5706C51.5597 46.5706 56.8767 51.8876 56.8767 58.4472Z" fill="#362A40"/>
<path d="M64.0289 58.4472C64.0289 68.9556 55.5102 77.4761 45.0001 77.4761C39.4568 77.4761 34.4665 75.1059 30.9901 71.3223C32.7175 69.4422 34.0733 67.2156 34.9371 64.7555C35.016 64.5293 35.0916 64.2993 35.1616 64.0696C42.0283 64.3264 49.2074 55.2906 56.2878 54.7411C58.888 54.538 61.4755 55.4808 64.0289 58.4472Z" fill="#6A78D7"/>
<path d="M59.7291 59.9728C58.8861 59.9728 58.2028 59.2894 58.2028 58.4465C58.2028 51.1666 52.2801 45.244 45.0001 45.244C44.1572 45.244 43.4738 44.5605 43.4738 43.7177C43.4738 42.8748 44.1572 42.1913 45.0001 42.1913C53.9633 42.1913 61.2555 49.4835 61.2555 58.4467C61.2555 59.2894 60.572 59.9728 59.7291 59.9728Z" fill="#E8ECFD"/>
<path d="M56.8767 58.4473C56.8767 65.0051 51.5597 70.3222 45 70.3222C40.7586 70.3222 37.038 68.0991 34.9369 64.7555C35.0158 64.5293 35.0914 64.2994 35.1614 64.0696C42.0281 64.3264 49.2072 55.2906 56.2877 54.7411C56.6702 55.9063 56.8767 57.1526 56.8767 58.4473Z" fill="#545EC0"/>
<path d="M18.8481 23.1056C22.0841 23.1056 24.7074 20.4823 24.7074 17.2462C24.7074 14.0102 22.0841 11.3869 18.8481 11.3869C15.612 11.3869 12.9887 14.0102 12.9887 17.2462C12.9887 20.4823 15.612 23.1056 18.8481 23.1056Z" fill="#D2D9F8"/>
<path d="M31.4213 23.1056C34.6573 23.1056 37.2806 20.4823 37.2806 17.2462C37.2806 14.0102 34.6573 11.3869 31.4213 11.3869C28.1853 11.3869 25.562 14.0102 25.562 17.2462C25.562 20.4823 28.1853 23.1056 31.4213 23.1056Z" fill="#D2D9F8"/>
<path d="M33.2763 22.8074C32.6927 22.9996 32.0696 23.1056 31.4213 23.1056C28.1855 23.1056 25.562 20.482 25.562 17.2462C25.562 14.0085 28.1855 11.3869 31.4213 11.3869C32.0696 11.3869 32.6927 11.4929 33.2763 11.6851C30.9491 12.4608 29.2701 14.657 29.2701 17.2462C29.2701 19.8337 30.9491 22.0317 33.2763 22.8074Z" fill="#C3CCEC"/>
<path d="M20.7031 22.8074C20.1195 22.9996 19.4963 23.1056 18.8481 23.1056C15.6123 23.1056 12.9887 20.482 12.9887 17.2462C12.9887 14.0085 15.6123 11.3869 18.8481 11.3869C19.4963 11.3869 20.1195 11.4929 20.7031 11.6851C18.3759 12.4608 16.6968 14.657 16.6968 17.2462C16.6968 19.8337 18.3757 22.0317 20.7031 22.8074Z" fill="#C3CCEC"/>
<path d="M72.263 16.342H73.5909C74.5925 16.342 75.4046 15.5301 75.4046 14.5283V13.2005C75.4046 12.1989 74.5927 11.3867 73.5909 11.3867H72.263C71.2614 11.3867 70.4493 12.1987 70.4493 13.2005V14.5283C70.4493 15.5301 71.2614 16.342 72.263 16.342Z" fill="#6A78D7"/>
<path d="M72.263 23.6067H73.5909C74.5925 23.6067 75.4046 22.7948 75.4046 21.793V20.4651C75.4046 19.4635 74.5927 18.6514 73.5909 18.6514H72.263C71.2614 18.6514 70.4493 19.4634 70.4493 20.4651V21.793C70.4493 22.7948 71.2614 23.6067 72.263 23.6067Z" fill="#6A78D7"/>
<path d="M65.0246 16.342H66.3525C67.3541 16.342 68.1662 15.5301 68.1662 14.5283V13.2005C68.1662 12.1989 67.3543 11.3867 66.3525 11.3867H65.0246C64.023 11.3867 63.2109 12.1987 63.2109 13.2005V14.5283C63.2109 15.5301 64.023 16.342 65.0246 16.342Z" fill="#6A78D7"/>
<path d="M65.0246 23.6067H66.3525C67.3541 23.6067 68.1662 22.7948 68.1662 21.793V20.4651C68.1662 19.4635 67.3543 18.6514 66.3525 18.6514H65.0246C64.023 18.6514 63.2109 19.4634 63.2109 20.4651V21.793C63.2109 22.7948 64.023 23.6067 65.0246 23.6067Z" fill="#6A78D7"/>
<path d="M57.7864 16.342H59.1143C60.1159 16.342 60.928 15.5301 60.928 14.5283V13.2005C60.928 12.1989 60.1161 11.3867 59.1143 11.3867H57.7864C56.7848 11.3867 55.9727 12.1987 55.9727 13.2005V14.5283C55.9727 15.5301 56.7848 16.342 57.7864 16.342Z" fill="#DC4356"/>
<path d="M57.7864 23.6067H59.1143C60.1159 23.6067 60.928 22.7948 60.928 21.793V20.4651C60.928 19.4635 60.1161 18.6514 59.1143 18.6514H57.7864C56.7848 18.6514 55.9727 19.4634 55.9727 20.4651V21.793C55.9727 22.7948 56.7848 23.6067 57.7864 23.6067Z" fill="#6A78D7"/>
<path d="M44.9301 66.6612H44.5346C43.395 66.6612 42.4713 65.7374 42.4713 64.5978V64.2023C42.4713 63.3507 41.8167 62.6178 40.9659 62.5778C40.0575 62.535 39.3076 63.2587 39.3076 64.1577V64.598C39.3076 65.7376 38.3839 66.6613 37.2443 66.6613H36.8488C35.9971 66.6613 35.2641 67.3159 35.2242 68.1667C35.1815 69.075 35.9052 69.8249 36.8041 69.8249H37.2445C38.3841 69.8249 39.3078 70.7486 39.3078 71.8882V72.2837C39.3078 73.1354 39.9624 73.8682 40.8132 73.9083C41.7216 73.951 42.4713 73.2273 42.4713 72.3283V71.888C42.4713 70.7484 43.395 69.8247 44.5346 69.8247H44.975C45.8739 69.8247 46.5978 69.0748 46.5549 68.1665C46.5146 67.3158 45.7818 66.6612 44.9301 66.6612Z" fill="#E8ECFD"/>
<path d="M50.8956 23.6067H42.5283C41.2816 23.6067 40.2711 22.5962 40.2711 21.3495V13.6441C40.2711 12.3975 41.2816 11.3869 42.5283 11.3869H50.8956C52.1423 11.3869 53.1528 12.3975 53.1528 13.6441V21.3495C53.1528 22.5962 52.1423 23.6067 50.8956 23.6067Z" fill="#77C378"/>
<path d="M49.6373 14.9026V20.0911H43.7868V14.9026H49.6373Z" fill="#5FA158"/>
</g>
<defs>
<clipPath id="clip0_1_14">
<rect width="90" height="90" fill="white"/>
</clipPath>
</defs>
</svg>
